# xmcd CD database file
#
# Track frame offsets:
#	150
#	15154
#	36199
#	51982
#	72822
#	100475
#	120877
#	139454
#	163201
#	174389
#	186382
#	203279
#	226100
#	240490
#	254627
#	269648
#	282260
#	295856
#	310995
#	325208
#	345809
#
# Disc length: 4852 seconds
#
# Revision: 0
# Processed by: cddbd v1.5.1PL2 Copyright (c) Steve Scherf et al.
# Submitted via: Feurio! 1.68 - http://www.feurio.com
#
DISCID=2e12f215
DTITLE=Various Artist - Mississippi Blues
DYEAR=1900
DGENRE=Blues
TTITLE0=Mississippi John Hurt - C C Rider
TTITLE1=North Mississippi Allstars - All Night Long
TTITLE2=North Mississippi Allstars - Circle In The Sky
TTITLE3=North Mississippi Allstars - Drop Down Mama
TTITLE4=North Mississippi Allstars - Goin' Down South
TTITLE5=North Mississippi Allstars - Po Black Maddie
TTITLE6=North Mississippi Allstars - Shake 'Em On Down
TTITLE7=North Mississippi Allstars - Skinny Woman
TTITLE8=North Mississippi Allstars - Someday Baby
TTITLE9=North Mississippi Allstars - Station Blues
TTITLE10=North Mississippi Allstars - Sugar Town
TTITLE11=North Mississippi Allstars - Drinking Muddy Water
TTITLE12=Mississippi Sheiks - Alberta Blues
TTITLE13=Mississippi Sheiks - Bed Springs
TTITLE14=Mississippi Sheiks - Driving That Thing
TTITLE15=Mississippi Sheiks - Ram Rod Blues
TTITLE16=Mississippi Sheiks - Sittin' On Top Of The World
TTITLE17=Mississippi Sheiks - The World Is Going Wrong
TTITLE18=Mississippi Sheiks - So Fine
TTITLE19=North Mississippi Allstars - KC Jones (On the Road Again)
TTITLE20=The Pirates Of the Mississippi - Feed Jake
EXTD=
EXTT0=
EXTT1=
EXTT2=
EXTT3=
EXTT4=
EXTT5=
EXTT6=
EXTT7=
EXTT8=
EXTT9=
EXTT10=
EXTT11=
EXTT12=
EXTT13=
EXTT14=
EXTT15=
EXTT16=
EXTT17=
EXTT18=
EXTT19=
EXTT20=
PLAYORDER=
